<svg width="77" height="77" viewBox="0 0 77 77" xmlns="http://www.w3.org/2000/svg">
  <path d="M61.3937 49.9375C60.7195 53.2577 58.9182 56.2428 56.295 58.3869C53.6718 60.5309 50.388 61.7022 47 61.7022C43.612 61.7022 40.3282 60.5309 37.705 58.3869C35.0817 56.2428 33.2804 53.2577 32.6062 49.9375H6.02478C6.74949 60.3112 11.3817 70.024 18.9868 77.1164C26.5919 84.2087 36.6039 88.1527 47.0029 88.1527C57.4019 88.1527 67.4139 84.2087 75.019 77.1164C82.6241 70.024 87.2563 60.3112 87.981 49.9375H61.3937Z" fill="#fff" fill-opacity="0.2"/>
  <path d="M32.6062 44.0625C33.2804 40.7423 35.0817 37.7572 37.705 35.6131C40.3282 33.4691 43.612 32.2978 47 32.2978C50.388 32.2978 53.6718 33.4691 56.295 35.6131C58.9182 37.7572 60.7195 40.7423 61.3937 44.0625H87.9781C87.2534 33.6888 82.6212 23.976 75.0161 16.8836C67.411 9.79128 57.399 5.84726 47 5.84726C36.601 5.84726 26.589 9.79128 18.9839 16.8836C11.3787 23.976 6.74656 33.6888 6.02185 44.0625H32.6062Z" fill="#fff" fill-opacity="0.2"/>
  <path d="M47 55.8125C51.867 55.8125 55.8125 51.867 55.8125 47C55.8125 42.133 51.867 38.1875 47 38.1875C42.133 38.1875 38.1875 42.133 38.1875 47C38.1875 51.867 42.133 55.8125 47 55.8125Z" fill="#fff" fill-opacity="0.2"/>
</svg>
