<svg width="252" height="246" viewBox="0 0 252 246" fill="none" xmlns="http://www.w3.org/2000/svg">
<g opacity="0.1" clip-path="url(#clip0_7_2594)">
<path d="M237.041 41.3221C239.634 51.375 238.673 62.0156 234.319 71.4408C229.966 80.8661 222.487 88.4964 213.152 93.0389C203.816 97.5813 193.197 98.7566 183.094 96.3656C172.991 93.9746 164.025 88.1643 157.715 79.9193L84.4692 115.559C100.375 143.172 126.162 163.726 156.627 173.072C187.092 182.419 219.969 179.863 248.624 165.92C277.279 151.978 299.579 127.686 311.026 97.9463C322.473 68.2063 322.215 35.2317 310.303 5.67482L237.041 41.3221Z" fill="black"/>
<path d="M149.839 63.7305C147.245 53.6775 148.206 43.037 152.56 33.6117C156.913 24.1865 164.392 16.5562 173.727 12.0137C183.063 7.47123 193.682 6.29591 203.785 8.68692C213.888 11.0779 222.854 16.8882 229.164 25.1333L302.418 -10.51C286.512 -38.1236 260.726 -58.6769 230.26 -68.0236C199.795 -77.3702 166.918 -74.8144 138.264 -60.8718C109.609 -46.9292 87.3082 -22.6376 75.8611 7.10235C64.4141 36.8423 64.6725 69.8169 76.5842 99.3738L149.839 63.7305Z" fill="black"/>
<path d="M205.255 76.8095C218.666 70.284 224.248 54.122 217.723 40.7108C211.197 27.2996 195.035 21.7176 181.624 28.2431C168.213 34.7686 162.631 50.9305 169.156 64.3417C175.682 77.753 191.844 83.335 205.255 76.8095Z" fill="black"/>
</g>
<defs>
<clipPath id="clip0_7_2594">
<rect width="288.055" height="288.055" fill="white" transform="translate(0.91333 -13.9683) rotate(-25.9461)"/>
</clipPath>
</defs>
</svg>
