<svg width="20" height="20" viewBox="0 0 20 20" fill="none" xmlns="http://www.w3.org/2000/svg">
<path fill-rule="evenodd" clip-rule="evenodd" d="M2.35002 0C1.07772 0 0 1.07773 0 2.35002V6.85007C0 8.1224 1.07772 9.20011 2.35002 9.20011H6.85007C8.12242 9.20011 9.20013 8.1224 9.20013 6.85007V2.35002C9.20013 1.07773 8.12242 0 6.85007 0H2.35002ZM2.00002 2.35002C2.00002 2.18231 2.1823 2.00002 2.35002 2.00002H6.85007C7.01779 2.00002 7.20008 2.18231 7.20008 2.35002V6.85007C7.20008 7.01779 7.01779 7.20008 6.85007 7.20008H2.35002C2.1823 7.20008 2.00002 7.01779 2.00002 6.85007V2.35002Z" fill="#ee1515"/>
<path fill-rule="evenodd" clip-rule="evenodd" d="M13.1503 0C11.878 0 10.8003 1.07773 10.8003 2.35002V6.85007C10.8003 8.1224 11.878 9.20011 13.1503 9.20011H17.6504C18.9227 9.20011 20.0004 8.1224 20.0004 6.85007V2.35002C20.0004 1.07773 18.9227 0 17.6504 0H13.1503ZM12.8003 2.35002C12.8003 2.18231 12.9826 2.00002 13.1503 2.00002H17.6504C17.8181 2.00002 18.0004 2.18231 18.0004 2.35002V6.85007C18.0004 7.01779 17.8181 7.20008 17.6504 7.20008H13.1503C12.9826 7.20008 12.8003 7.01779 12.8003 6.85007V2.35002Z" fill="#ee1515"/>
<path fill-rule="evenodd" clip-rule="evenodd" d="M0 13.1499C0 11.8776 1.07772 10.7999 2.35002 10.7999H6.85007C8.12242 10.7999 9.20013 11.8776 9.20013 13.1499V17.65C9.20013 18.9223 8.12242 20 6.85007 20H2.35002C1.07772 20 0 18.9223 0 17.65V13.1499ZM2.35002 12.7999C2.1823 12.7999 2.00002 12.9822 2.00002 13.1499V17.65C2.00002 17.8177 2.1823 18 2.35002 18H6.85007C7.01779 18 7.20008 17.8177 7.20008 17.65V13.1499C7.20008 12.9822 7.01779 12.7999 6.85007 12.7999H2.35002Z" fill="#ee1515"/>
<path fill-rule="evenodd" clip-rule="evenodd" d="M13.1503 10.7999C11.878 10.7999 10.8003 11.8776 10.8003 13.1499V17.65C10.8003 18.9223 11.878 20 13.1503 20H17.6504C18.9227 20 20.0004 18.9223 20.0004 17.65V13.1499C20.0004 11.8776 18.9227 10.7999 17.6504 10.7999H13.1503ZM12.8003 13.1499C12.8003 12.9822 12.9826 12.7999 13.1503 12.7999H17.6504C17.8181 12.7999 18.0004 12.9822 18.0004 13.1499V17.65C18.0004 17.8177 17.8181 18 17.6504 18H13.1503C12.9826 18 12.8003 17.8177 12.8003 17.65V13.1499Z" fill="#ee1515"/>
</svg>
