<svg width="164" height="57" viewBox="0 0 164 57" fill="none" xmlns="http://www.w3.org/2000/svg">
<mask id="path-1-outside-1_72_561" maskUnits="userSpaceOnUse" x="16" y="14" width="140" height="38" fill="black">
<rect fill="white" x="16" y="14" width="140" height="38"/>
<path d="M18.66 39.585V20.16C18.66 17.605 19.99 16.8 22.02 16.8H30.805C35.635 16.8 39.52 19.18 39.52 24.78C39.52 29.365 36.335 32.76 30.77 32.76H24.4V39.585C24.4 41.3 23.28 42.455 21.53 42.455C19.78 42.455 18.66 41.3 18.66 39.585ZM24.4 21.21V28.35H29.755C32.065 28.35 33.78 26.95 33.78 24.78C33.78 22.26 31.995 21.21 29.16 21.21H24.4ZM45.954 32.83C45.954 35.945 47.249 38.675 50.294 38.675C53.339 38.675 54.634 35.945 54.634 32.83C54.634 29.505 53.269 27.02 50.294 27.02C47.319 27.02 45.954 29.505 45.954 32.83ZM40.844 32.83C40.844 27.44 44.134 23.24 50.294 23.24C56.454 23.24 59.744 27.44 59.744 32.83C59.744 37.94 57.259 42.455 50.294 42.455C43.329 42.455 40.844 37.94 40.844 32.83ZM63.0446 39.9V18.9C63.0446 17.22 64.0596 16.345 65.5996 16.345C67.1396 16.345 68.1546 17.22 68.1546 18.9V30.52L73.8246 24.22C74.3496 23.66 75.0146 23.24 75.7846 23.24C76.9396 23.24 78.1996 24.255 78.1996 25.55C78.1996 26.46 77.8846 26.74 77.4296 27.23L73.6496 31.185L78.9696 38.325C79.1446 38.57 79.4946 39.13 79.4946 39.97C79.4946 41.265 78.4446 42.455 77.0796 42.455C75.8196 42.455 75.1546 41.825 74.7696 41.265L69.9396 34.44L68.1546 36.015V39.9C68.1546 41.58 67.1396 42.455 65.5996 42.455C64.0596 42.455 63.0446 41.58 63.0446 39.9ZM97.7335 33.81H86.1835C86.1835 36.505 87.9335 38.465 90.9085 38.465C94.7585 38.465 94.7585 35.945 96.8235 35.945C98.0485 35.945 98.9235 36.995 98.9235 37.94C98.9235 41.02 93.9885 42.455 90.9085 42.455C83.7685 42.455 81.0735 37.625 81.0735 33.18C81.0735 27.23 84.6785 23.24 90.7335 23.24C96.6135 23.24 99.9735 27.405 99.9735 31.605C99.9735 33.355 99.4485 33.81 97.7335 33.81ZM86.1835 30.87H95.1435C94.8635 28.525 93.1135 26.81 90.8385 26.81C88.2835 26.81 86.7435 28.385 86.1835 30.87ZM102.119 37.73L109.539 18.095C110.029 16.8 110.939 16.345 112.339 16.345H113.704C114.999 16.345 116.154 16.66 116.784 18.445L123.714 37.73C123.924 38.29 124.274 39.305 124.274 39.935C124.274 41.335 123.049 42.455 121.579 42.455C120.319 42.455 119.409 42 118.989 40.88L117.519 36.68H108.279L106.774 40.88C106.389 42 105.584 42.455 104.219 42.455C102.644 42.455 101.559 41.475 101.559 39.935C101.559 39.305 101.909 38.29 102.119 37.73ZM116.259 32.69L113.004 22.575H112.934L109.539 32.69H116.259ZM126.619 46.69V25.655C126.619 24.08 127.354 23.24 128.929 23.24C130.434 23.24 131.239 24.08 131.239 25.655V26.46H131.309C132.149 24.29 134.214 23.24 136.699 23.24C140.969 23.24 144.714 26.355 144.714 32.97C144.714 37.87 142.229 42.455 136.839 42.455C134.494 42.455 132.744 41.51 131.799 39.865H131.729V46.69C131.729 48.37 130.714 49.245 129.174 49.245C127.634 49.245 126.619 48.37 126.619 46.69ZM139.604 32.795C139.604 29.785 138.274 27.3 135.544 27.23C132.569 27.23 131.449 29.89 131.449 32.795C131.449 35.42 132.429 38.5 135.544 38.465C138.799 38.465 139.604 35.175 139.604 32.795ZM148.295 39.9V25.795C148.295 24.43 148.855 23.24 150.85 23.24C152.845 23.24 153.405 24.43 153.405 25.795V39.9C153.405 41.265 152.845 42.455 150.85 42.455C148.855 42.455 148.295 41.265 148.295 39.9ZM148.19 18.865C148.19 17.395 149.38 16.205 150.85 16.205C152.32 16.205 153.51 17.395 153.51 18.865C153.51 20.335 152.32 21.525 150.85 21.525C149.38 21.525 148.19 20.335 148.19 18.865Z"/>
</mask>
<path d="M18.66 39.585V20.16C18.66 17.605 19.99 16.8 22.02 16.8H30.805C35.635 16.8 39.52 19.18 39.52 24.78C39.52 29.365 36.335 32.76 30.77 32.76H24.4V39.585C24.4 41.3 23.28 42.455 21.53 42.455C19.78 42.455 18.66 41.3 18.66 39.585ZM24.4 21.21V28.35H29.755C32.065 28.35 33.78 26.95 33.78 24.78C33.78 22.26 31.995 21.21 29.16 21.21H24.4ZM45.954 32.83C45.954 35.945 47.249 38.675 50.294 38.675C53.339 38.675 54.634 35.945 54.634 32.83C54.634 29.505 53.269 27.02 50.294 27.02C47.319 27.02 45.954 29.505 45.954 32.83ZM40.844 32.83C40.844 27.44 44.134 23.24 50.294 23.24C56.454 23.24 59.744 27.44 59.744 32.83C59.744 37.94 57.259 42.455 50.294 42.455C43.329 42.455 40.844 37.94 40.844 32.83ZM63.0446 39.9V18.9C63.0446 17.22 64.0596 16.345 65.5996 16.345C67.1396 16.345 68.1546 17.22 68.1546 18.9V30.52L73.8246 24.22C74.3496 23.66 75.0146 23.24 75.7846 23.24C76.9396 23.24 78.1996 24.255 78.1996 25.55C78.1996 26.46 77.8846 26.74 77.4296 27.23L73.6496 31.185L78.9696 38.325C79.1446 38.57 79.4946 39.13 79.4946 39.97C79.4946 41.265 78.4446 42.455 77.0796 42.455C75.8196 42.455 75.1546 41.825 74.7696 41.265L69.9396 34.44L68.1546 36.015V39.9C68.1546 41.58 67.1396 42.455 65.5996 42.455C64.0596 42.455 63.0446 41.58 63.0446 39.9ZM97.7335 33.81H86.1835C86.1835 36.505 87.9335 38.465 90.9085 38.465C94.7585 38.465 94.7585 35.945 96.8235 35.945C98.0485 35.945 98.9235 36.995 98.9235 37.94C98.9235 41.02 93.9885 42.455 90.9085 42.455C83.7685 42.455 81.0735 37.625 81.0735 33.18C81.0735 27.23 84.6785 23.24 90.7335 23.24C96.6135 23.24 99.9735 27.405 99.9735 31.605C99.9735 33.355 99.4485 33.81 97.7335 33.81ZM86.1835 30.87H95.1435C94.8635 28.525 93.1135 26.81 90.8385 26.81C88.2835 26.81 86.7435 28.385 86.1835 30.87ZM102.119 37.73L109.539 18.095C110.029 16.8 110.939 16.345 112.339 16.345H113.704C114.999 16.345 116.154 16.66 116.784 18.445L123.714 37.73C123.924 38.29 124.274 39.305 124.274 39.935C124.274 41.335 123.049 42.455 121.579 42.455C120.319 42.455 119.409 42 118.989 40.88L117.519 36.68H108.279L106.774 40.88C106.389 42 105.584 42.455 104.219 42.455C102.644 42.455 101.559 41.475 101.559 39.935C101.559 39.305 101.909 38.29 102.119 37.73ZM116.259 32.69L113.004 22.575H112.934L109.539 32.69H116.259ZM126.619 46.69V25.655C126.619 24.08 127.354 23.24 128.929 23.24C130.434 23.24 131.239 24.08 131.239 25.655V26.46H131.309C132.149 24.29 134.214 23.24 136.699 23.24C140.969 23.24 144.714 26.355 144.714 32.97C144.714 37.87 142.229 42.455 136.839 42.455C134.494 42.455 132.744 41.51 131.799 39.865H131.729V46.69C131.729 48.37 130.714 49.245 129.174 49.245C127.634 49.245 126.619 48.37 126.619 46.69ZM139.604 32.795C139.604 29.785 138.274 27.3 135.544 27.23C132.569 27.23 131.449 29.89 131.449 32.795C131.449 35.42 132.429 38.5 135.544 38.465C138.799 38.465 139.604 35.175 139.604 32.795ZM148.295 39.9V25.795C148.295 24.43 148.855 23.24 150.85 23.24C152.845 23.24 153.405 24.43 153.405 25.795V39.9C153.405 41.265 152.845 42.455 150.85 42.455C148.855 42.455 148.295 41.265 148.295 39.9ZM148.19 18.865C148.19 17.395 149.38 16.205 150.85 16.205C152.32 16.205 153.51 17.395 153.51 18.865C153.51 20.335 152.32 21.525 150.85 21.525C149.38 21.525 148.19 20.335 148.19 18.865Z" fill="white"/>
<path d="M24.4 32.76V30.76H22.4V32.76H24.4ZM24.4 21.21V19.21H22.4V21.21H24.4ZM24.4 28.35H22.4V30.35H24.4V28.35ZM20.66 39.585V20.16H16.66V39.585H20.66ZM20.66 20.16C20.66 19.21 20.9016 19.0219 20.9068 19.0173C20.9599 18.9701 21.2118 18.8 22.02 18.8V14.8C20.7982 14.8 19.3701 15.0324 18.2507 16.0264C17.0834 17.0631 16.66 18.555 16.66 20.16H20.66ZM22.02 18.8H30.805V14.8H22.02V18.8ZM30.805 18.8C32.9235 18.8 34.597 19.325 35.7035 20.2349C36.7483 21.0939 37.52 22.4839 37.52 24.78H41.52C41.52 21.4761 40.3492 18.8761 38.244 17.1451C36.2005 15.465 33.5165 14.8 30.805 14.8V18.8ZM37.52 24.78C37.52 26.5967 36.8991 28.0437 35.852 29.0416C34.8008 30.0435 33.1422 30.76 30.77 30.76V34.76C33.9628 34.76 36.6792 33.779 38.6117 31.9371C40.5484 30.0913 41.52 27.5483 41.52 24.78H37.52ZM30.77 30.76H24.4V34.76H30.77V30.76ZM22.4 32.76V39.585H26.4V32.76H22.4ZM22.4 39.585C22.4 40.0001 22.2725 40.1829 22.2009 40.2551C22.132 40.3246 21.9539 40.455 21.53 40.455V44.455C22.8561 44.455 24.113 44.0079 25.0416 43.0711C25.9675 42.1371 26.4 40.8849 26.4 39.585H22.4ZM21.53 40.455C21.1061 40.455 20.928 40.3246 20.8591 40.2551C20.7875 40.1829 20.66 40.0001 20.66 39.585H16.66C16.66 40.8849 17.0925 42.1371 18.0184 43.0711C18.947 44.0079 20.2039 44.455 21.53 44.455V40.455ZM22.4 21.21V28.35H26.4V21.21H22.4ZM24.4 30.35H29.755V26.35H24.4V30.35ZM29.755 30.35C31.3052 30.35 32.8019 29.8787 33.9429 28.8907C35.1097 27.8804 35.78 26.4312 35.78 24.78H31.78C31.78 25.2988 31.5928 25.6346 31.3246 25.8668C31.0306 26.1213 30.5148 26.35 29.755 26.35V30.35ZM35.78 24.78C35.78 22.9881 35.1087 21.4418 33.7031 20.4279C32.4138 19.4979 30.7679 19.21 29.16 19.21V23.21C30.3871 23.21 31.0512 23.4471 31.3631 23.6721C31.5588 23.8132 31.78 24.0519 31.78 24.78H35.78ZM29.16 19.21H24.4V23.21H29.16V19.21ZM43.954 32.83C43.954 34.6211 44.3196 36.5108 45.3107 38.019C46.3658 39.6245 48.064 40.675 50.294 40.675V36.675C49.479 36.675 49.0072 36.3605 48.6535 35.8223C48.2359 35.1867 47.954 34.1539 47.954 32.83H43.954ZM50.294 40.675C52.524 40.675 54.2222 39.6245 55.2773 38.019C56.2684 36.5108 56.634 34.6211 56.634 32.83H52.634C52.634 34.1539 52.3521 35.1867 51.9344 35.8223C51.5808 36.3605 51.109 36.675 50.294 36.675V40.675ZM56.634 32.83C56.634 30.937 56.2521 29.0345 55.2275 27.5448C54.1354 25.9568 52.4295 25.02 50.294 25.02V29.02C51.1334 29.02 51.5976 29.3257 51.9317 29.8115C52.3334 30.3955 52.634 31.398 52.634 32.83H56.634ZM50.294 25.02C48.1584 25.02 46.4526 25.9568 45.3605 27.5448C44.3359 29.0345 43.954 30.937 43.954 32.83H47.954C47.954 31.398 48.2546 30.3955 48.6562 29.8115C48.9904 29.3257 49.4545 29.02 50.294 29.02V25.02ZM42.844 32.83C42.844 30.5333 43.5419 28.6548 44.728 27.3709C45.892 26.111 47.6938 25.24 50.294 25.24V21.24C46.7341 21.24 43.8109 22.469 41.7899 24.6566C39.7911 26.8202 38.844 29.7367 38.844 32.83H42.844ZM50.294 25.24C52.8941 25.24 54.6959 26.111 55.86 27.3709C57.0461 28.6548 57.744 30.5333 57.744 32.83H61.744C61.744 29.7367 60.7969 26.8202 58.798 24.6566C56.777 22.469 53.8538 21.24 50.294 21.24V25.24ZM57.744 32.83C57.744 35.096 57.1895 36.9809 56.1025 38.2687C55.0659 39.4969 53.3149 40.455 50.294 40.455V44.455C54.2381 44.455 57.2121 43.1556 59.1592 40.8488C61.056 38.6016 61.744 35.674 61.744 32.83H57.744ZM50.294 40.455C47.2731 40.455 45.5221 39.4969 44.4855 38.2687C43.3985 36.9809 42.844 35.096 42.844 32.83H38.844C38.844 35.674 39.532 38.6016 41.4288 40.8488C43.3759 43.1556 46.3499 44.455 50.294 44.455V40.455ZM68.1546 30.52H66.1546V35.7319L69.6412 31.8579L68.1546 30.52ZM73.8246 24.22L72.3656 22.8521L72.3517 22.867L72.3381 22.8821L73.8246 24.22ZM77.4296 27.23L78.8755 28.6119L78.8854 28.6015L78.8952 28.5909L77.4296 27.23ZM73.6496 31.185L72.2038 29.8031L71.0362 31.0248L72.0459 32.38L73.6496 31.185ZM78.9696 38.325L80.5971 37.1625L80.5854 37.1462L80.5734 37.13L78.9696 38.325ZM74.7696 41.265L76.4177 40.1319L76.41 40.1207L76.4022 40.1097L74.7696 41.265ZM69.9396 34.44L71.5722 33.2847L70.286 31.4672L68.6164 32.9403L69.9396 34.44ZM68.1546 36.015L66.8314 34.5153L66.1546 35.1125V36.015H68.1546ZM65.0446 39.9V18.9H61.0446V39.9H65.0446ZM65.0446 18.9C65.0446 18.6797 65.078 18.553 65.1002 18.4936C65.1113 18.4641 65.1205 18.4485 65.1245 18.4424C65.1283 18.4364 65.1302 18.4348 65.1303 18.4347C65.1305 18.4345 65.1338 18.4312 65.1435 18.4254C65.1534 18.4194 65.1734 18.4089 65.207 18.3972C65.2757 18.3734 65.4014 18.345 65.5996 18.345V14.345C64.4604 14.345 63.272 14.6731 62.359 15.5503C61.4325 16.4405 61.0446 17.6507 61.0446 18.9H65.0446ZM65.5996 18.345C65.7979 18.345 65.9236 18.3734 65.9923 18.3972C66.0259 18.4089 66.0459 18.4194 66.0558 18.4254C66.0655 18.4312 66.0688 18.4345 66.069 18.4347C66.0691 18.4348 66.071 18.4364 66.0748 18.4424C66.0788 18.4485 66.088 18.4641 66.0991 18.4936C66.1213 18.553 66.1546 18.6797 66.1546 18.9H70.1546C70.1546 17.6507 69.7668 16.4405 68.8403 15.5503C67.9273 14.6731 66.7389 14.345 65.5996 14.345V18.345ZM66.1546 18.9V30.52H70.1546V18.9H66.1546ZM69.6412 31.8579L75.3112 25.5579L72.3381 22.8821L66.6681 29.1821L69.6412 31.8579ZM75.2837 25.5879C75.4339 25.4277 75.562 25.3337 75.6539 25.2847C75.7374 25.2402 75.7754 25.24 75.7846 25.24V21.24C74.2484 21.24 73.0925 22.0767 72.3656 22.8521L75.2837 25.5879ZM75.7846 25.24C75.7839 25.24 75.8214 25.2409 75.8885 25.2685C75.9546 25.2957 76.024 25.3386 76.0834 25.3924C76.2114 25.5082 76.1996 25.576 76.1996 25.55H80.1996C80.1996 24.229 79.5579 23.1418 78.7671 22.4263C77.9891 21.7224 76.9204 21.24 75.7846 21.24V25.24ZM76.1996 25.55C76.1996 25.6639 76.1896 25.6995 76.1927 25.686C76.1977 25.6639 76.2116 25.6221 76.2355 25.5789C76.2551 25.5434 76.2638 25.5399 76.2218 25.589C76.2 25.6145 76.1707 25.6472 76.1259 25.6956C76.1037 25.7196 76.0802 25.7447 76.0526 25.7742C76.026 25.8026 75.9955 25.8353 75.9641 25.8691L78.8952 28.5909C79.0378 28.4374 79.4509 28.0295 79.7351 27.5161C80.0727 26.9062 80.1996 26.2559 80.1996 25.55H76.1996ZM75.9838 25.8481L72.2038 29.8031L75.0955 32.5669L78.8755 28.6119L75.9838 25.8481ZM72.0459 32.38L77.3659 39.52L80.5734 37.13L75.2534 29.99L72.0459 32.38ZM77.3422 39.4875C77.3965 39.5635 77.4946 39.7161 77.4946 39.97H81.4946C81.4946 38.5439 80.8928 37.5765 80.5971 37.1625L77.3422 39.4875ZM77.4946 39.97C77.4946 40.0812 77.4454 40.2184 77.3438 40.3261C77.2506 40.425 77.1583 40.455 77.0796 40.455V44.455C79.6585 44.455 81.4946 42.2571 81.4946 39.97H77.4946ZM77.0796 40.455C76.8038 40.455 76.6861 40.392 76.6402 40.3639C76.5778 40.3258 76.5055 40.2595 76.4177 40.1319L73.1216 42.3981C73.7624 43.3302 74.978 44.455 77.0796 44.455V40.455ZM76.4022 40.1097L71.5722 33.2847L68.3071 35.5953L73.1371 42.4203L76.4022 40.1097ZM68.6164 32.9403L66.8314 34.5153L69.4779 37.5147L71.2629 35.9397L68.6164 32.9403ZM66.1546 36.015V39.9H70.1546V36.015H66.1546ZM66.1546 39.9C66.1546 40.1203 66.1213 40.247 66.0991 40.3064C66.088 40.3359 66.0788 40.3515 66.0748 40.3576C66.071 40.3636 66.0691 40.3652 66.069 40.3653C66.0688 40.3655 66.0655 40.3688 66.0558 40.3746C66.0459 40.3806 66.0259 40.3911 65.9923 40.4028C65.9236 40.4266 65.7979 40.455 65.5996 40.455V44.455C66.7389 44.455 67.9273 44.1269 68.8403 43.2497C69.7668 42.3595 70.1546 41.1493 70.1546 39.9H66.1546ZM65.5996 40.455C65.4014 40.455 65.2756 40.4266 65.207 40.4028C65.1734 40.3911 65.1534 40.3806 65.1435 40.3746C65.1338 40.3688 65.1305 40.3655 65.1303 40.3653C65.1302 40.3652 65.1283 40.3636 65.1245 40.3576C65.1205 40.3515 65.1113 40.3359 65.1002 40.3064C65.078 40.247 65.0446 40.1203 65.0446 39.9H61.0446C61.0446 41.1493 61.4325 42.3595 62.359 43.2497C63.272 44.1269 64.4604 44.455 65.5996 44.455V40.455ZM86.1835 33.81V31.81H84.1835V33.81H86.1835ZM86.1835 30.87L84.2324 30.4303L83.6826 32.87H86.1835V30.87ZM95.1435 30.87V32.87H97.3965L97.1294 30.6329L95.1435 30.87ZM97.7335 31.81H86.1835V35.81H97.7335V31.81ZM84.1835 33.81C84.1835 35.593 84.7689 37.2883 86.0011 38.5471C87.2417 39.8145 88.9671 40.465 90.9085 40.465V36.465C89.8748 36.465 89.2378 36.1355 88.8596 35.7491C88.473 35.3542 88.1835 34.722 88.1835 33.81H84.1835ZM90.9085 40.465C92.0975 40.465 93.0826 40.2687 93.9281 39.9206C94.7723 39.5729 95.38 39.1128 95.8325 38.7273C96.8931 37.8236 96.7209 37.945 96.8235 37.945V33.945C94.8611 33.945 93.6563 35.3264 93.2382 35.6827C92.9513 35.9272 92.7081 36.0971 92.4049 36.2219C92.1031 36.3463 91.6445 36.465 90.9085 36.465V40.465ZM96.8235 37.945C96.8393 37.945 96.8473 37.9475 96.855 37.951C96.8659 37.9558 96.8833 37.9664 96.9023 37.9858C96.9223 38.0063 96.9325 38.0249 96.9352 38.031C96.9361 38.033 96.9336 38.0279 96.9306 38.0143C96.9276 38.0008 96.9235 37.9759 96.9235 37.94H100.923C100.923 35.9345 99.1966 33.945 96.8235 33.945V37.945ZM96.9235 37.94C96.9235 38.2509 96.6701 38.8762 95.236 39.5351C93.9132 40.1429 92.2002 40.455 90.9085 40.455V44.455C92.6967 44.455 94.9912 44.0496 96.906 43.1699C98.7093 42.3413 100.923 40.7091 100.923 37.94H96.9235ZM90.9085 40.455C87.8244 40.455 85.9421 39.4319 84.8087 38.1561C83.6348 36.8347 83.0735 35.0245 83.0735 33.18H79.0735C79.0735 35.7805 79.8596 38.6078 81.8182 40.8126C83.8174 43.0631 86.8525 44.455 90.9085 44.455V40.455ZM83.0735 33.18C83.0735 30.6063 83.8477 28.6533 85.0812 27.358C86.3025 26.0755 88.1609 25.24 90.7335 25.24V21.24C87.2511 21.24 84.2795 22.3995 82.1845 24.5995C80.1018 26.7867 79.0735 29.8037 79.0735 33.18H83.0735ZM90.7335 25.24C95.5194 25.24 97.9735 28.5201 97.9735 31.605H101.973C101.973 26.2899 97.7075 21.24 90.7335 21.24V25.24ZM97.9735 31.605C97.9735 31.7759 97.967 31.9069 97.9572 32.0063C97.9474 32.1062 97.9356 32.1593 97.9305 32.1786C97.9258 32.1967 97.9309 32.1697 97.9595 32.1169C97.9901 32.0606 98.0392 31.9905 98.11 31.9224C98.1805 31.8546 98.2494 31.811 98.2993 31.786C98.3457 31.7627 98.3649 31.7608 98.3383 31.7673C98.3108 31.7739 98.2504 31.7855 98.1451 31.7949C98.0403 31.8042 97.9058 31.81 97.7335 31.81V35.81C98.612 35.81 99.9176 35.734 100.883 34.8051C101.871 33.8548 101.973 32.5338 101.973 31.605H97.9735ZM86.1835 32.87H95.1435V28.87H86.1835V32.87ZM97.1294 30.6329C96.7447 27.4113 94.2512 24.81 90.8385 24.81V28.81C91.9757 28.81 92.9823 29.6387 93.1576 31.1071L97.1294 30.6329ZM90.8385 24.81C89.122 24.81 87.6009 25.3518 86.4171 26.4286C85.2607 27.4805 84.5762 28.9048 84.2324 30.4303L88.1345 31.3097C88.3508 30.3502 88.7163 29.7445 89.1086 29.3876C89.4735 29.0557 90 28.81 90.8385 28.81V24.81ZM102.119 37.73L100.248 37.023L100.246 37.0278L102.119 37.73ZM109.539 18.095L107.669 17.3872L107.668 17.388L109.539 18.095ZM116.784 18.445L114.898 19.1106L114.902 19.1213L116.784 18.445ZM123.714 37.73L121.832 38.4063L121.837 38.4193L121.841 38.4322L123.714 37.73ZM118.989 40.88L117.101 41.5407L117.109 41.5616L117.116 41.5822L118.989 40.88ZM117.519 36.68L119.407 36.0193L118.938 34.68H117.519V36.68ZM108.279 36.68V34.68H106.871L106.396 36.0053L108.279 36.68ZM106.774 40.88L104.891 40.2053L104.887 40.2176L104.883 40.2298L106.774 40.88ZM116.259 32.69V34.69H119.004L118.163 32.0773L116.259 32.69ZM113.004 22.575L114.908 21.9623L114.462 20.575H113.004V22.575ZM112.934 22.575V20.575H111.496L111.038 21.9386L112.934 22.575ZM109.539 32.69L107.643 32.0536L106.758 34.69H109.539V32.69ZM103.99 38.437L111.41 18.802L107.668 17.388L100.248 37.023L103.99 38.437ZM111.41 18.8028C111.474 18.6338 111.53 18.5476 111.561 18.5087C111.588 18.4746 111.605 18.4625 111.62 18.4536C111.658 18.431 111.833 18.345 112.339 18.345V14.345C111.445 14.345 110.466 14.4865 109.576 15.0151C108.645 15.5682 108.039 16.4091 107.669 17.3872L111.41 18.8028ZM112.339 18.345H113.704V14.345H112.339V18.345ZM113.704 18.345C114.223 18.345 114.421 18.4163 114.503 18.463C114.527 18.4768 114.706 18.5662 114.898 19.1106L118.67 17.7794C118.232 16.5388 117.519 15.5781 116.484 14.9883C115.507 14.4312 114.48 14.345 113.704 14.345V18.345ZM114.902 19.1213L121.832 38.4063L125.596 37.0536L118.666 17.7686L114.902 19.1213ZM121.841 38.4322C121.937 38.6882 122.056 39.0237 122.148 39.3502C122.194 39.5126 122.229 39.6552 122.25 39.772C122.274 39.8975 122.274 39.9465 122.274 39.935H126.274C126.274 39.3299 126.12 38.6972 125.998 38.2623C125.862 37.7838 125.701 37.3318 125.587 37.0278L121.841 38.4322ZM122.274 39.935C122.274 40.0302 122.237 40.1434 122.117 40.2544C121.994 40.3691 121.805 40.455 121.579 40.455V44.455C124.012 44.455 126.274 42.5766 126.274 39.935H122.274ZM121.579 40.455C121.174 40.455 121.011 40.3798 120.973 40.3574C120.957 40.3484 120.95 40.3418 120.941 40.3307C120.93 40.3178 120.898 40.2753 120.862 40.1778L117.116 41.5822C117.473 42.5334 118.092 43.3106 118.966 43.8176C119.802 44.3027 120.724 44.455 121.579 44.455V40.455ZM120.877 40.2193L119.407 36.0193L115.631 37.3407L117.101 41.5407L120.877 40.2193ZM117.519 34.68H108.279V38.68H117.519V34.68ZM106.396 36.0053L104.891 40.2053L108.657 41.5547L110.162 37.3547L106.396 36.0053ZM104.883 40.2298C104.842 40.347 104.811 40.3903 104.808 40.3944C104.806 40.3966 104.808 40.3931 104.815 40.3871C104.822 40.3811 104.827 40.3771 104.83 40.3757C104.84 40.3698 104.705 40.455 104.219 40.455V44.455C105.098 44.455 106.049 44.3127 106.898 43.7993C107.796 43.2568 108.352 42.4408 108.666 41.5302L104.883 40.2298ZM104.219 40.455C103.845 40.455 103.699 40.3436 103.664 40.3113C103.644 40.2924 103.559 40.2132 103.559 39.935H99.5591C99.5591 41.1968 100.017 42.3776 100.933 43.2337C101.835 44.0764 103.018 44.455 104.219 44.455V40.455ZM103.559 39.935C103.559 39.9465 103.559 39.8975 103.583 39.772C103.605 39.6552 103.639 39.5126 103.685 39.3502C103.777 39.0237 103.896 38.6882 103.992 38.4322L100.246 37.0278C100.132 37.3318 99.971 37.7838 99.8358 38.2623C99.7129 38.6972 99.5591 39.3299 99.5591 39.935H103.559ZM118.163 32.0773L114.908 21.9623L111.1 23.1877L114.355 33.3027L118.163 32.0773ZM113.004 20.575H112.934V24.575H113.004V20.575ZM111.038 21.9386L107.643 32.0536L111.435 33.3264L114.83 23.2114L111.038 21.9386ZM109.539 34.69H116.259V30.69H109.539V34.69ZM131.239 26.46H129.239V28.46H131.239V26.46ZM131.309 26.46V28.46H132.679L133.174 27.182L131.309 26.46ZM131.799 39.865L133.533 38.8688L132.956 37.865H131.799V39.865ZM131.729 39.865V37.865H129.729V39.865H131.729ZM135.544 27.23L135.595 25.2307L135.57 25.23H135.544V27.23ZM135.544 38.465V36.465H135.533L135.521 36.4651L135.544 38.465ZM128.619 46.69V25.655H124.619V46.69H128.619ZM128.619 25.655C128.619 25.1427 128.741 25.1191 128.644 25.2232C128.597 25.2732 128.557 25.286 128.574 25.2801C128.602 25.2702 128.707 25.24 128.929 25.24V21.24C127.799 21.24 126.605 21.5476 125.723 22.4906C124.864 23.4084 124.619 24.5923 124.619 25.655H128.619ZM128.929 25.24C129.123 25.24 129.219 25.2675 129.247 25.2776C129.267 25.2848 129.239 25.2771 129.203 25.2397C129.121 25.1534 129.239 25.1868 129.239 25.655H133.239C133.239 24.5482 132.954 23.3741 132.093 22.4741C131.218 21.5595 130.047 21.24 128.929 21.24V25.24ZM129.239 25.655V26.46H133.239V25.655H129.239ZM131.239 28.46H131.309V24.46H131.239V28.46ZM133.174 27.182C133.627 26.0106 134.764 25.24 136.699 25.24V21.24C133.663 21.24 130.67 22.5694 129.444 25.738L133.174 27.182ZM136.699 25.24C138.335 25.24 139.782 25.827 140.832 26.9749C141.889 28.1293 142.714 30.0381 142.714 32.97H146.714C146.714 29.2869 145.666 26.3307 143.783 24.2738C141.894 22.2105 139.333 21.24 136.699 21.24V25.24ZM142.714 32.97C142.714 35.1159 142.165 37.0361 141.187 38.3641C140.261 39.6216 138.885 40.455 136.839 40.455V44.455C140.183 44.455 142.744 42.9959 144.408 40.7359C146.02 38.5464 146.714 35.7241 146.714 32.97H142.714ZM136.839 40.455C135.067 40.455 134.055 39.7781 133.533 38.8688L130.065 40.8612C131.432 43.2419 133.921 44.455 136.839 44.455V40.455ZM131.799 37.865H131.729V41.865H131.799V37.865ZM129.729 39.865V46.69H133.729V39.865H129.729ZM129.729 46.69C129.729 46.9103 129.696 47.037 129.673 47.0964C129.662 47.1259 129.653 47.1415 129.649 47.1476C129.645 47.1536 129.643 47.1552 129.643 47.1553C129.643 47.1555 129.64 47.1588 129.63 47.1646C129.62 47.1706 129.6 47.1811 129.567 47.1928C129.498 47.2166 129.372 47.245 129.174 47.245V51.245C130.313 51.245 131.502 50.9169 132.415 50.0397C133.341 49.1495 133.729 47.9393 133.729 46.69H129.729ZM129.174 47.245C128.976 47.245 128.85 47.2166 128.781 47.1928C128.748 47.1811 128.728 47.1706 128.718 47.1646C128.708 47.1588 128.705 47.1555 128.705 47.1553C128.704 47.1552 128.703 47.1536 128.699 47.1476C128.695 47.1415 128.685 47.1259 128.674 47.0964C128.652 47.037 128.619 46.9103 128.619 46.69H124.619C124.619 47.9393 125.007 49.1495 125.933 50.0397C126.846 50.9169 128.035 51.245 129.174 51.245V47.245ZM141.604 32.795C141.604 31.0308 141.219 29.2306 140.259 27.7973C139.25 26.289 137.653 25.2834 135.595 25.2307L135.493 29.2293C136.165 29.2466 136.598 29.5185 136.936 30.0227C137.324 30.6019 137.604 31.5492 137.604 32.795H141.604ZM135.544 25.23C133.341 25.23 131.694 26.2717 130.692 27.8522C129.761 29.3196 129.449 31.1344 129.449 32.795H133.449C133.449 31.5506 133.697 30.5829 134.07 29.9941C134.371 29.5183 134.772 29.23 135.544 29.23V25.23ZM129.449 32.795C129.449 34.302 129.722 36.1199 130.598 37.6309C131.542 39.2581 133.189 40.4916 135.566 40.4649L135.521 36.4651C134.784 36.4734 134.383 36.1844 134.058 35.6241C133.666 34.9476 133.449 33.913 133.449 32.795H129.449ZM135.544 40.465C138.02 40.465 139.653 39.1331 140.552 37.4768C141.383 35.9458 141.604 34.1515 141.604 32.795H137.604C137.604 33.8185 137.422 34.8592 137.037 35.5682C136.72 36.1519 136.323 36.465 135.544 36.465V40.465ZM150.295 39.9V25.795H146.295V39.9H150.295ZM150.295 25.795C150.295 25.5838 150.318 25.4398 150.342 25.3514C150.365 25.2682 150.382 25.2609 150.362 25.2846C150.336 25.3162 150.316 25.3189 150.351 25.3048C150.398 25.2858 150.546 25.24 150.85 25.24V21.24C149.443 21.24 148.16 21.6769 147.287 22.7267C146.473 23.7054 146.295 24.8898 146.295 25.795H150.295ZM150.85 25.24C151.155 25.24 151.302 25.2858 151.35 25.3048C151.385 25.3189 151.365 25.3162 151.338 25.2846C151.319 25.2609 151.336 25.2682 151.359 25.3514C151.383 25.4398 151.405 25.5838 151.405 25.795H155.405C155.405 24.8898 155.228 23.7054 154.414 22.7267C153.54 21.6769 152.258 21.24 150.85 21.24V25.24ZM151.405 25.795V39.9H155.405V25.795H151.405ZM151.405 39.9C151.405 40.1112 151.383 40.2552 151.359 40.3436C151.336 40.4268 151.319 40.4341 151.338 40.4104C151.365 40.3788 151.385 40.3761 151.35 40.3902C151.302 40.4092 151.155 40.455 150.85 40.455V44.455C152.258 44.455 153.54 44.0181 154.414 42.9683C155.228 41.9896 155.405 40.8052 155.405 39.9H151.405ZM150.85 40.455C150.546 40.455 150.398 40.4092 150.351 40.3902C150.316 40.3761 150.336 40.3788 150.362 40.4104C150.382 40.4341 150.365 40.4268 150.342 40.3436C150.318 40.2552 150.295 40.1112 150.295 39.9H146.295C146.295 40.8052 146.473 41.9896 147.287 42.9683C148.16 44.0181 149.443 44.455 150.85 44.455V40.455ZM150.19 18.865C150.19 18.4996 150.485 18.205 150.85 18.205V14.205C148.276 14.205 146.19 16.2904 146.19 18.865H150.19ZM150.85 18.205C151.216 18.205 151.51 18.4996 151.51 18.865H155.51C155.51 16.2904 153.425 14.205 150.85 14.205V18.205ZM151.51 18.865C151.51 19.2304 151.216 19.525 150.85 19.525V23.525C153.425 23.525 155.51 21.4396 155.51 18.865H151.51ZM150.85 19.525C150.485 19.525 150.19 19.2304 150.19 18.865H146.19C146.19 21.4396 148.276 23.525 150.85 23.525V19.525Z" fill="black" mask="url(#path-1-outside-1_72_561)"/>
</svg>
