<svg width="136" height="34" viewBox="0 0 136 34" fill="none" xmlns="http://www.w3.org/2000/svg">
<mask id="path-1-outside-1_72_477" maskUnits="userSpaceOnUse" x="-2" y="-2" width="140" height="38" fill="black">
<rect fill="white" x="-2" y="-2" width="140" height="38"/>
<path d="M0.66 23.585V4.16C0.66 1.605 1.99 0.799999 4.02 0.799999H12.805C17.635 0.799999 21.52 3.18 21.52 8.78C21.52 13.365 18.335 16.76 12.77 16.76H6.4V23.585C6.4 25.3 5.28 26.455 3.53 26.455C1.78 26.455 0.66 25.3 0.66 23.585ZM6.4 5.21V12.35H11.755C14.065 12.35 15.78 10.95 15.78 8.78C15.78 6.26 13.995 5.21 11.16 5.21H6.4ZM27.954 16.83C27.954 19.945 29.249 22.675 32.294 22.675C35.339 22.675 36.634 19.945 36.634 16.83C36.634 13.505 35.269 11.02 32.294 11.02C29.319 11.02 27.954 13.505 27.954 16.83ZM22.844 16.83C22.844 11.44 26.134 7.24 32.294 7.24C38.454 7.24 41.744 11.44 41.744 16.83C41.744 21.94 39.259 26.455 32.294 26.455C25.329 26.455 22.844 21.94 22.844 16.83ZM45.0446 23.9V2.9C45.0446 1.22 46.0596 0.344999 47.5996 0.344999C49.1396 0.344999 50.1546 1.22 50.1546 2.9V14.52L55.8246 8.22C56.3496 7.66 57.0146 7.24 57.7846 7.24C58.9396 7.24 60.1996 8.255 60.1996 9.55C60.1996 10.46 59.8846 10.74 59.4296 11.23L55.6496 15.185L60.9696 22.325C61.1446 22.57 61.4946 23.13 61.4946 23.97C61.4946 25.265 60.4446 26.455 59.0796 26.455C57.8196 26.455 57.1546 25.825 56.7696 25.265L51.9396 18.44L50.1546 20.015V23.9C50.1546 25.58 49.1396 26.455 47.5996 26.455C46.0596 26.455 45.0446 25.58 45.0446 23.9ZM79.7335 17.81H68.1835C68.1835 20.505 69.9335 22.465 72.9085 22.465C76.7585 22.465 76.7585 19.945 78.8235 19.945C80.0485 19.945 80.9235 20.995 80.9235 21.94C80.9235 25.02 75.9885 26.455 72.9085 26.455C65.7685 26.455 63.0735 21.625 63.0735 17.18C63.0735 11.23 66.6785 7.24 72.7335 7.24C78.6135 7.24 81.9735 11.405 81.9735 15.605C81.9735 17.355 81.4485 17.81 79.7335 17.81ZM68.1835 14.87H77.1435C76.8635 12.525 75.1135 10.81 72.8385 10.81C70.2835 10.81 68.7435 12.385 68.1835 14.87ZM84.1191 21.73L91.5391 2.095C92.0291 0.799999 92.9391 0.344999 94.3391 0.344999H95.7041C96.9991 0.344999 98.1541 0.659999 98.7841 2.445L105.714 21.73C105.924 22.29 106.274 23.305 106.274 23.935C106.274 25.335 105.049 26.455 103.579 26.455C102.319 26.455 101.409 26 100.989 24.88L99.5191 20.68H90.2791L88.7741 24.88C88.3891 26 87.5841 26.455 86.2191 26.455C84.6441 26.455 83.5591 25.475 83.5591 23.935C83.5591 23.305 83.9091 22.29 84.1191 21.73ZM98.2591 16.69L95.0041 6.575H94.9341L91.5391 16.69H98.2591ZM108.619 30.69V9.655C108.619 8.08 109.354 7.24 110.929 7.24C112.434 7.24 113.239 8.08 113.239 9.655V10.46H113.309C114.149 8.29 116.214 7.24 118.699 7.24C122.969 7.24 126.714 10.355 126.714 16.97C126.714 21.87 124.229 26.455 118.839 26.455C116.494 26.455 114.744 25.51 113.799 23.865H113.729V30.69C113.729 32.37 112.714 33.245 111.174 33.245C109.634 33.245 108.619 32.37 108.619 30.69ZM121.604 16.795C121.604 13.785 120.274 11.3 117.544 11.23C114.569 11.23 113.449 13.89 113.449 16.795C113.449 19.42 114.429 22.5 117.544 22.465C120.799 22.465 121.604 19.175 121.604 16.795ZM130.295 23.9V9.795C130.295 8.43 130.855 7.24 132.85 7.24C134.845 7.24 135.405 8.43 135.405 9.795V23.9C135.405 25.265 134.845 26.455 132.85 26.455C130.855 26.455 130.295 25.265 130.295 23.9ZM130.19 2.865C130.19 1.395 131.38 0.204998 132.85 0.204998C134.32 0.204998 135.51 1.395 135.51 2.865C135.51 4.335 134.32 5.525 132.85 5.525C131.38 5.525 130.19 4.335 130.19 2.865Z"/>
</mask>
<path d="M0.66 23.585V4.16C0.66 1.605 1.99 0.799999 4.02 0.799999H12.805C17.635 0.799999 21.52 3.18 21.52 8.78C21.52 13.365 18.335 16.76 12.77 16.76H6.4V23.585C6.4 25.3 5.28 26.455 3.53 26.455C1.78 26.455 0.66 25.3 0.66 23.585ZM6.4 5.21V12.35H11.755C14.065 12.35 15.78 10.95 15.78 8.78C15.78 6.26 13.995 5.21 11.16 5.21H6.4ZM27.954 16.83C27.954 19.945 29.249 22.675 32.294 22.675C35.339 22.675 36.634 19.945 36.634 16.83C36.634 13.505 35.269 11.02 32.294 11.02C29.319 11.02 27.954 13.505 27.954 16.83ZM22.844 16.83C22.844 11.44 26.134 7.24 32.294 7.24C38.454 7.24 41.744 11.44 41.744 16.83C41.744 21.94 39.259 26.455 32.294 26.455C25.329 26.455 22.844 21.94 22.844 16.83ZM45.0446 23.9V2.9C45.0446 1.22 46.0596 0.344999 47.5996 0.344999C49.1396 0.344999 50.1546 1.22 50.1546 2.9V14.52L55.8246 8.22C56.3496 7.66 57.0146 7.24 57.7846 7.24C58.9396 7.24 60.1996 8.255 60.1996 9.55C60.1996 10.46 59.8846 10.74 59.4296 11.23L55.6496 15.185L60.9696 22.325C61.1446 22.57 61.4946 23.13 61.4946 23.97C61.4946 25.265 60.4446 26.455 59.0796 26.455C57.8196 26.455 57.1546 25.825 56.7696 25.265L51.9396 18.44L50.1546 20.015V23.9C50.1546 25.58 49.1396 26.455 47.5996 26.455C46.0596 26.455 45.0446 25.58 45.0446 23.9ZM79.7335 17.81H68.1835C68.1835 20.505 69.9335 22.465 72.9085 22.465C76.7585 22.465 76.7585 19.945 78.8235 19.945C80.0485 19.945 80.9235 20.995 80.9235 21.94C80.9235 25.02 75.9885 26.455 72.9085 26.455C65.7685 26.455 63.0735 21.625 63.0735 17.18C63.0735 11.23 66.6785 7.24 72.7335 7.24C78.6135 7.24 81.9735 11.405 81.9735 15.605C81.9735 17.355 81.4485 17.81 79.7335 17.81ZM68.1835 14.87H77.1435C76.8635 12.525 75.1135 10.81 72.8385 10.81C70.2835 10.81 68.7435 12.385 68.1835 14.87ZM84.1191 21.73L91.5391 2.095C92.0291 0.799999 92.9391 0.344999 94.3391 0.344999H95.7041C96.9991 0.344999 98.1541 0.659999 98.7841 2.445L105.714 21.73C105.924 22.29 106.274 23.305 106.274 23.935C106.274 25.335 105.049 26.455 103.579 26.455C102.319 26.455 101.409 26 100.989 24.88L99.5191 20.68H90.2791L88.7741 24.88C88.3891 26 87.5841 26.455 86.2191 26.455C84.6441 26.455 83.5591 25.475 83.5591 23.935C83.5591 23.305 83.9091 22.29 84.1191 21.73ZM98.2591 16.69L95.0041 6.575H94.9341L91.5391 16.69H98.2591ZM108.619 30.69V9.655C108.619 8.08 109.354 7.24 110.929 7.24C112.434 7.24 113.239 8.08 113.239 9.655V10.46H113.309C114.149 8.29 116.214 7.24 118.699 7.24C122.969 7.24 126.714 10.355 126.714 16.97C126.714 21.87 124.229 26.455 118.839 26.455C116.494 26.455 114.744 25.51 113.799 23.865H113.729V30.69C113.729 32.37 112.714 33.245 111.174 33.245C109.634 33.245 108.619 32.37 108.619 30.69ZM121.604 16.795C121.604 13.785 120.274 11.3 117.544 11.23C114.569 11.23 113.449 13.89 113.449 16.795C113.449 19.42 114.429 22.5 117.544 22.465C120.799 22.465 121.604 19.175 121.604 16.795ZM130.295 23.9V9.795C130.295 8.43 130.855 7.24 132.85 7.24C134.845 7.24 135.405 8.43 135.405 9.795V23.9C135.405 25.265 134.845 26.455 132.85 26.455C130.855 26.455 130.295 25.265 130.295 23.9ZM130.19 2.865C130.19 1.395 131.38 0.204998 132.85 0.204998C134.32 0.204998 135.51 1.395 135.51 2.865C135.51 4.335 134.32 5.525 132.85 5.525C131.38 5.525 130.19 4.335 130.19 2.865Z" fill="white"/>
<path d="M6.4 16.76V14.76H4.4V16.76H6.4ZM6.4 5.21V3.21H4.4V5.21H6.4ZM6.4 12.35H4.4V14.35H6.4V12.35ZM2.66 23.585V4.16H-1.34V23.585H2.66ZM2.66 4.16C2.66 3.21001 2.90162 3.02189 2.90679 3.01731C2.95991 2.97013 3.21179 2.8 4.02 2.8V-1.2C2.79821 -1.2 1.37009 -0.967633 0.250715 0.02644C-0.916623 1.06311 -1.34 2.55498 -1.34 4.16H2.66ZM4.02 2.8H12.805V-1.2H4.02V2.8ZM12.805 2.8C14.9235 2.8 16.597 3.32502 17.7035 4.23485C18.7483 5.09386 19.52 6.48389 19.52 8.78H23.52C23.52 5.47611 22.3492 2.87614 20.244 1.14515C18.2005 -0.535024 15.5165 -1.2 12.805 -1.2V2.8ZM19.52 8.78C19.52 10.5967 18.8991 12.0437 17.852 13.0416C16.8008 14.0435 15.1422 14.76 12.77 14.76V18.76C15.9628 18.76 18.6792 17.779 20.6117 15.9371C22.5484 14.0913 23.52 11.5483 23.52 8.78H19.52ZM12.77 14.76H6.4V18.76H12.77V14.76ZM4.4 16.76V23.585H8.4V16.76H4.4ZM4.4 23.585C4.4 24.0001 4.27249 24.1829 4.20087 24.2551C4.13196 24.3246 3.95392 24.455 3.53 24.455V28.455C4.85608 28.455 6.11304 28.0079 7.04163 27.0711C7.96751 26.1371 8.4 24.8849 8.4 23.585H4.4ZM3.53 24.455C3.10608 24.455 2.92804 24.3246 2.85913 24.2551C2.78751 24.1829 2.66 24.0001 2.66 23.585H-1.34C-1.34 24.8849 -0.907509 26.1371 0.0183745 27.0711C0.946965 28.0079 2.20392 28.455 3.53 28.455V24.455ZM4.4 5.21V12.35H8.4V5.21H4.4ZM6.4 14.35H11.755V10.35H6.4V14.35ZM11.755 14.35C13.3052 14.35 14.8019 13.8787 15.9429 12.8907C17.1097 11.8804 17.78 10.4312 17.78 8.78H13.78C13.78 9.29877 13.5928 9.63455 13.3246 9.86676C13.0306 10.1213 12.5148 10.35 11.755 10.35V14.35ZM17.78 8.78C17.78 6.98812 17.1087 5.4418 15.7031 4.42794C14.4138 3.4979 12.7679 3.21 11.16 3.21V7.21C12.3871 7.21 13.0512 7.44709 13.3631 7.67206C13.5588 7.8132 13.78 8.05188 13.78 8.78H17.78ZM11.16 3.21H6.4V7.21H11.16V3.21ZM25.954 16.83C25.954 18.6211 26.3196 20.5108 27.3107 22.019C28.3658 23.6245 30.064 24.675 32.294 24.675V20.675C31.479 20.675 31.0072 20.3605 30.6535 19.8223C30.2359 19.1867 29.954 18.1539 29.954 16.83H25.954ZM32.294 24.675C34.524 24.675 36.2222 23.6245 37.2773 22.019C38.2684 20.5108 38.634 18.6211 38.634 16.83H34.634C34.634 18.1539 34.3521 19.1867 33.9344 19.8223C33.5808 20.3605 33.109 20.675 32.294 20.675V24.675ZM38.634 16.83C38.634 14.937 38.2521 13.0345 37.2275 11.5448C36.1354 9.95683 34.4295 9.02 32.294 9.02V13.02C33.1334 13.02 33.5976 13.3257 33.9317 13.8115C34.3334 14.3955 34.634 15.398 34.634 16.83H38.634ZM32.294 9.02C30.1584 9.02 28.4526 9.95683 27.3605 11.5448C26.3359 13.0345 25.954 14.937 25.954 16.83H29.954C29.954 15.398 30.2546 14.3955 30.6562 13.8115C30.9904 13.3257 31.4545 13.02 32.294 13.02V9.02ZM24.844 16.83C24.844 14.5333 25.5419 12.6548 26.728 11.3709C27.892 10.111 29.6938 9.24 32.294 9.24V5.24C28.7341 5.24 25.8109 6.46901 23.7899 8.65657C21.7911 10.8202 20.844 13.7367 20.844 16.83H24.844ZM32.294 9.24C34.8941 9.24 36.6959 10.111 37.86 11.3709C39.0461 12.6548 39.744 14.5333 39.744 16.83H43.744C43.744 13.7367 42.7969 10.8202 40.798 8.65657C38.777 6.46901 35.8538 5.24 32.294 5.24V9.24ZM39.744 16.83C39.744 19.096 39.1895 20.9809 38.1025 22.2687C37.0659 23.4969 35.3149 24.455 32.294 24.455V28.455C36.2381 28.455 39.2121 27.1556 41.1592 24.8488C43.056 22.6016 43.744 19.674 43.744 16.83H39.744ZM32.294 24.455C29.2731 24.455 27.5221 23.4969 26.4855 22.2687C25.3985 20.9809 24.844 19.096 24.844 16.83H20.844C20.844 19.674 21.532 22.6016 23.4288 24.8488C25.3759 27.1556 28.3499 28.455 32.294 28.455V24.455ZM50.1546 14.52H48.1546V19.7319L51.6412 15.8579L50.1546 14.52ZM55.8246 8.22L54.3656 6.85212L54.3517 6.86695L54.3381 6.88207L55.8246 8.22ZM59.4296 11.23L60.8755 12.6119L60.8854 12.6015L60.8952 12.5909L59.4296 11.23ZM55.6496 15.185L54.2038 13.8031L53.0362 15.0248L54.0459 16.38L55.6496 15.185ZM60.9696 22.325L62.5971 21.1625L62.5854 21.1462L62.5734 21.13L60.9696 22.325ZM56.7696 25.265L58.4177 24.1319L58.41 24.1207L58.4022 24.1097L56.7696 25.265ZM51.9396 18.44L53.5722 17.2847L52.286 15.4672L50.6164 16.9403L51.9396 18.44ZM50.1546 20.015L48.8314 18.5153L48.1546 19.1125V20.015H50.1546ZM47.0446 23.9V2.9H43.0446V23.9H47.0446ZM47.0446 2.9C47.0446 2.67967 47.078 2.55295 47.1002 2.49357C47.1113 2.46412 47.1205 2.44854 47.1245 2.44237C47.1283 2.43643 47.1302 2.43481 47.1303 2.43471C47.1305 2.43451 47.1338 2.43122 47.1435 2.42543C47.1534 2.41944 47.1734 2.40891 47.207 2.39723C47.2757 2.37339 47.4014 2.345 47.5996 2.345V-1.655C46.4604 -1.655 45.272 -1.32688 44.359 -0.44971C43.4325 0.440464 43.0446 1.65074 43.0446 2.9H47.0446ZM47.5996 2.345C47.7979 2.345 47.9236 2.37339 47.9923 2.39723C48.0259 2.40891 48.0459 2.41944 48.0558 2.42543C48.0655 2.43122 48.0688 2.43451 48.069 2.43471C48.0691 2.43481 48.071 2.43643 48.0748 2.44237C48.0788 2.44854 48.088 2.46412 48.0991 2.49357C48.1213 2.55295 48.1546 2.67967 48.1546 2.9H52.1546C52.1546 1.65074 51.7668 0.440464 50.8403 -0.44971C49.9273 -1.32688 48.7389 -1.655 47.5996 -1.655V2.345ZM48.1546 2.9V14.52H52.1546V2.9H48.1546ZM51.6412 15.8579L57.3112 9.55793L54.3381 6.88207L48.6681 13.1821L51.6412 15.8579ZM57.2837 9.58788C57.4339 9.42769 57.562 9.33374 57.6539 9.28471C57.7374 9.2402 57.7754 9.24 57.7846 9.24V5.24C56.2484 5.24 55.0925 6.07674 54.3656 6.85212L57.2837 9.58788ZM57.7846 9.24C57.7839 9.24 57.8214 9.24089 57.8885 9.26848C57.9546 9.29567 58.024 9.33865 58.0834 9.39245C58.2114 9.50825 58.1996 9.57598 58.1996 9.55H62.1996C62.1996 8.22902 61.5579 7.14175 60.7671 6.4263C59.9891 5.72236 58.9204 5.24 57.7846 5.24V9.24ZM58.1996 9.55C58.1996 9.66388 58.1896 9.69949 58.1927 9.68597C58.1977 9.66394 58.2116 9.62205 58.2355 9.57887C58.2551 9.54336 58.2638 9.53989 58.2218 9.58905C58.2 9.61454 58.1707 9.64716 58.1259 9.6956C58.1037 9.71959 58.0802 9.74472 58.0526 9.77421C58.026 9.80264 57.9955 9.83529 57.9641 9.8691L60.8952 12.5909C61.0378 12.4374 61.4509 12.0295 61.7351 11.5161C62.0727 10.9062 62.1996 10.2559 62.1996 9.55H58.1996ZM57.9838 9.84814L54.2038 13.8031L57.0955 16.5669L60.8755 12.6119L57.9838 9.84814ZM54.0459 16.38L59.3659 23.52L62.5734 21.13L57.2534 13.99L54.0459 16.38ZM59.3422 23.4875C59.3965 23.5635 59.4946 23.7161 59.4946 23.97H63.4946C63.4946 22.5439 62.8928 21.5765 62.5971 21.1625L59.3422 23.4875ZM59.4946 23.97C59.4946 24.0812 59.4454 24.2184 59.3438 24.3261C59.2506 24.425 59.1583 24.455 59.0796 24.455V28.455C61.6585 28.455 63.4946 26.2571 63.4946 23.97H59.4946ZM59.0796 24.455C58.8038 24.455 58.6861 24.392 58.6402 24.3639C58.5778 24.3258 58.5055 24.2595 58.4177 24.1319L55.1216 26.3981C55.7624 27.3302 56.978 28.455 59.0796 28.455V24.455ZM58.4022 24.1097L53.5722 17.2847L50.3071 19.5953L55.1371 26.4203L58.4022 24.1097ZM50.6164 16.9403L48.8314 18.5153L51.4779 21.5147L53.2629 19.9397L50.6164 16.9403ZM48.1546 20.015V23.9H52.1546V20.015H48.1546ZM48.1546 23.9C48.1546 24.1203 48.1213 24.247 48.0991 24.3064C48.088 24.3359 48.0788 24.3515 48.0748 24.3576C48.071 24.3636 48.0691 24.3652 48.069 24.3653C48.0688 24.3655 48.0655 24.3688 48.0558 24.3746C48.0459 24.3806 48.0259 24.3911 47.9923 24.4028C47.9236 24.4266 47.7979 24.455 47.5996 24.455V28.455C48.7389 28.455 49.9273 28.1269 50.8403 27.2497C51.7668 26.3595 52.1546 25.1493 52.1546 23.9H48.1546ZM47.5996 24.455C47.4014 24.455 47.2756 24.4266 47.207 24.4028C47.1734 24.3911 47.1534 24.3806 47.1435 24.3746C47.1338 24.3688 47.1305 24.3655 47.1303 24.3653C47.1302 24.3652 47.1283 24.3636 47.1245 24.3576C47.1205 24.3515 47.1113 24.3359 47.1002 24.3064C47.078 24.247 47.0446 24.1203 47.0446 23.9H43.0446C43.0446 25.1493 43.4325 26.3595 44.359 27.2497C45.272 28.1269 46.4604 28.455 47.5996 28.455V24.455ZM68.1835 17.81V15.81H66.1835V17.81H68.1835ZM68.1835 14.87L66.2324 14.4303L65.6826 16.87H68.1835V14.87ZM77.1435 14.87V16.87H79.3965L79.1294 14.6329L77.1435 14.87ZM79.7335 15.81H68.1835V19.81H79.7335V15.81ZM66.1835 17.81C66.1835 19.593 66.7689 21.2883 68.0011 22.5471C69.2417 23.8145 70.9671 24.465 72.9085 24.465V20.465C71.8748 20.465 71.2378 20.1355 70.8596 19.7491C70.473 19.3542 70.1835 18.722 70.1835 17.81H66.1835ZM72.9085 24.465C74.0975 24.465 75.0826 24.2687 75.9281 23.9206C76.7723 23.5729 77.38 23.1128 77.8325 22.7273C78.8931 21.8236 78.7209 21.945 78.8235 21.945V17.945C76.8611 17.945 75.6563 19.3264 75.2382 19.6827C74.9513 19.9272 74.7081 20.0971 74.4049 20.2219C74.1031 20.3463 73.6445 20.465 72.9085 20.465V24.465ZM78.8235 21.945C78.8393 21.945 78.8473 21.9475 78.855 21.951C78.8659 21.9558 78.8833 21.9664 78.9023 21.9858C78.9223 22.0063 78.9325 22.0249 78.9352 22.031C78.9361 22.033 78.9336 22.0279 78.9306 22.0143C78.9276 22.0008 78.9235 21.9759 78.9235 21.94H82.9235C82.9235 19.9345 81.1966 17.945 78.8235 17.945V21.945ZM78.9235 21.94C78.9235 22.2509 78.6701 22.8762 77.236 23.5351C75.9132 24.1429 74.2002 24.455 72.9085 24.455V28.455C74.6967 28.455 76.9912 28.0496 78.906 27.1699C80.7093 26.3413 82.9235 24.7091 82.9235 21.94H78.9235ZM72.9085 24.455C69.8244 24.455 67.9421 23.4319 66.8087 22.1561C65.6348 20.8347 65.0735 19.0245 65.0735 17.18H61.0735C61.0735 19.7805 61.8596 22.6078 63.8182 24.8126C65.8174 27.0631 68.8525 28.455 72.9085 28.455V24.455ZM65.0735 17.18C65.0735 14.6063 65.8477 12.6533 67.0812 11.358C68.3025 10.0755 70.1609 9.24 72.7335 9.24V5.24C69.2511 5.24 66.2795 6.39954 64.1845 8.59953C62.1018 10.7867 61.0735 13.8037 61.0735 17.18H65.0735ZM72.7335 9.24C77.5194 9.24 79.9735 12.5201 79.9735 15.605H83.9735C83.9735 10.2899 79.7075 5.24 72.7335 5.24V9.24ZM79.9735 15.605C79.9735 15.7759 79.967 15.9069 79.9572 16.0063C79.9474 16.1062 79.9356 16.1593 79.9305 16.1786C79.9258 16.1967 79.9309 16.1697 79.9595 16.1169C79.9901 16.0606 80.0392 15.9905 80.11 15.9224C80.1805 15.8546 80.2494 15.811 80.2993 15.786C80.3457 15.7627 80.3649 15.7608 80.3383 15.7673C80.3108 15.7739 80.2504 15.7855 80.1451 15.7949C80.0403 15.8042 79.9058 15.81 79.7335 15.81V19.81C80.612 19.81 81.9176 19.734 82.8832 18.8051C83.871 17.8548 83.9735 16.5338 83.9735 15.605H79.9735ZM68.1835 16.87H77.1435V12.87H68.1835V16.87ZM79.1294 14.6329C78.7447 11.4113 76.2512 8.81 72.8385 8.81V12.81C73.9757 12.81 74.9823 13.6387 75.1576 15.1071L79.1294 14.6329ZM72.8385 8.81C71.122 8.81 69.6009 9.35182 68.4171 10.4286C67.2607 11.4805 66.5762 12.9048 66.2324 14.4303L70.1345 15.3097C70.3508 14.3502 70.7163 13.7445 71.1086 13.3876C71.4735 13.0557 72 12.81 72.8385 12.81V8.81ZM84.1191 21.73L82.2483 21.023L82.2465 21.0278L84.1191 21.73ZM91.5391 2.095L89.6686 1.38721L89.6683 1.388L91.5391 2.095ZM98.7841 2.445L96.8981 3.11065L96.902 3.12135L98.7841 2.445ZM105.714 21.73L103.832 22.4063L103.837 22.4193L103.841 22.4322L105.714 21.73ZM100.989 24.88L99.1014 25.5407L99.1087 25.5616L99.1165 25.5822L100.989 24.88ZM99.5191 20.68L101.407 20.0193L100.938 18.68H99.5191V20.68ZM90.2791 20.68V18.68H88.8713L88.3964 20.0053L90.2791 20.68ZM88.7741 24.88L86.8914 24.2053L86.887 24.2176L86.8828 24.2298L88.7741 24.88ZM98.2591 16.69V18.69H101.004L100.163 16.0773L98.2591 16.69ZM95.0041 6.575L96.908 5.96234L96.4615 4.575H95.0041V6.575ZM94.9341 6.575V4.575H93.4958L93.0381 5.93861L94.9341 6.575ZM91.5391 16.69L89.6431 16.0536L88.7582 18.69H91.5391V16.69ZM85.99 22.437L93.41 2.80199L89.6683 1.388L82.2483 21.023L85.99 22.437ZM93.4097 2.80278C93.4737 2.63375 93.5304 2.54758 93.5608 2.50868C93.5875 2.47465 93.6048 2.46251 93.6197 2.45364C93.6577 2.43104 93.8334 2.345 94.3391 2.345V-1.655C93.4449 -1.655 92.4655 -1.51355 91.5761 -0.98489C90.6455 -0.431794 90.0387 0.409128 89.6686 1.38721L93.4097 2.80278ZM94.3391 2.345H95.7041V-1.655H94.3391V2.345ZM95.7041 2.345C96.2232 2.345 96.421 2.41634 96.5028 2.46299C96.5271 2.47685 96.706 2.56624 96.8982 3.11064L100.67 1.77936C100.232 0.538756 99.5187 -0.421851 98.4842 -1.01175C97.5073 -1.56885 96.4801 -1.655 95.7041 -1.655V2.345ZM96.902 3.12135L103.832 22.4063L107.596 21.0536L100.666 1.76865L96.902 3.12135ZM103.841 22.4322C103.937 22.6882 104.056 23.0237 104.148 23.3502C104.194 23.5126 104.229 23.6552 104.25 23.772C104.274 23.8975 104.274 23.9465 104.274 23.935H108.274C108.274 23.3299 108.12 22.6972 107.998 22.2623C107.862 21.7838 107.701 21.3318 107.587 21.0278L103.841 22.4322ZM104.274 23.935C104.274 24.0302 104.237 24.1434 104.117 24.2544C103.994 24.3691 103.805 24.455 103.579 24.455V28.455C106.012 28.455 108.274 26.5766 108.274 23.935H104.274ZM103.579 24.455C103.174 24.455 103.011 24.3798 102.973 24.3574C102.957 24.3484 102.95 24.3418 102.941 24.3307C102.93 24.3178 102.898 24.2753 102.862 24.1778L99.1165 25.5822C99.4732 26.5334 100.092 27.3106 100.966 27.8176C101.802 28.3027 102.724 28.455 103.579 28.455V24.455ZM102.877 24.2193L101.407 20.0193L97.6314 21.3407L99.1014 25.5407L102.877 24.2193ZM99.5191 18.68H90.2791V22.68H99.5191V18.68ZM88.3964 20.0053L86.8914 24.2053L90.6569 25.5547L92.1619 21.3547L88.3964 20.0053ZM86.8828 24.2298C86.8425 24.347 86.8107 24.3903 86.8076 24.3944C86.806 24.3966 86.8084 24.3931 86.815 24.3871C86.8217 24.3811 86.8275 24.3771 86.8299 24.3757C86.8397 24.3698 86.7049 24.455 86.2191 24.455V28.455C87.0984 28.455 88.0486 28.3127 88.8984 27.7993C89.7964 27.2568 90.3525 26.4408 90.6655 25.5302L86.8828 24.2298ZM86.2191 24.455C85.8452 24.455 85.6987 24.3436 85.6641 24.3113C85.6439 24.2924 85.5591 24.2132 85.5591 23.935H81.5591C81.5591 25.1968 82.0168 26.3776 82.9329 27.2337C83.8346 28.0764 85.0181 28.455 86.2191 28.455V24.455ZM85.5591 23.935C85.5591 23.9465 85.5593 23.8975 85.5829 23.772C85.6048 23.6552 85.6391 23.5126 85.685 23.3502C85.7773 23.0237 85.8958 22.6882 85.9918 22.4322L82.2465 21.0278C82.1325 21.3318 81.971 21.7838 81.8358 22.2623C81.7129 22.6972 81.5591 23.3299 81.5591 23.935H85.5591ZM100.163 16.0773L96.908 5.96234L93.1003 7.18766L96.3553 17.3027L100.163 16.0773ZM95.0041 4.575H94.9341V8.575H95.0041V4.575ZM93.0381 5.93861L89.6431 16.0536L93.4352 17.3264L96.8302 7.21139L93.0381 5.93861ZM91.5391 18.69H98.2591V14.69H91.5391V18.69ZM113.239 10.46H111.239V12.46H113.239V10.46ZM113.309 10.46V12.46H114.679L115.174 11.182L113.309 10.46ZM113.799 23.865L115.533 22.8688L114.956 21.865H113.799V23.865ZM113.729 23.865V21.865H111.729V23.865H113.729ZM117.544 11.23L117.595 9.23066L117.57 9.23H117.544V11.23ZM117.544 22.465V20.465H117.533L117.521 20.4651L117.544 22.465ZM110.619 30.69V9.655H106.619V30.69H110.619ZM110.619 9.655C110.619 9.14274 110.741 9.11911 110.644 9.22319C110.597 9.27316 110.557 9.28601 110.574 9.28006C110.602 9.27017 110.707 9.24 110.929 9.24V5.24C109.799 5.24 108.605 5.54756 107.723 6.49056C106.864 7.40839 106.619 8.59226 106.619 9.655H110.619ZM110.929 9.24C111.123 9.24 111.219 9.26749 111.247 9.27763C111.267 9.28476 111.239 9.27714 111.203 9.23967C111.121 9.15345 111.239 9.1868 111.239 9.655H115.239C115.239 8.5482 114.954 7.37405 114.093 6.47408C113.218 5.55953 112.047 5.24 110.929 5.24V9.24ZM111.239 9.655V10.46H115.239V9.655H111.239ZM113.239 12.46H113.309V8.46H113.239V12.46ZM115.174 11.182C115.627 10.0106 116.764 9.24 118.699 9.24V5.24C115.663 5.24 112.67 6.56937 111.444 9.73801L115.174 11.182ZM118.699 9.24C120.335 9.24 121.782 9.82699 122.832 10.9749C123.889 12.1293 124.714 14.0381 124.714 16.97H128.714C128.714 13.2869 127.666 10.3307 125.783 8.27384C123.894 6.21051 121.333 5.24 118.699 5.24V9.24ZM124.714 16.97C124.714 19.1159 124.165 21.0361 123.187 22.3641C122.261 23.6216 120.885 24.455 118.839 24.455V28.455C122.183 28.455 124.744 26.9959 126.408 24.7359C128.02 22.5464 128.714 19.7241 128.714 16.97H124.714ZM118.839 24.455C117.067 24.455 116.055 23.7781 115.533 22.8688L112.065 24.8612C113.432 27.2419 115.921 28.455 118.839 28.455V24.455ZM113.799 21.865H113.729V25.865H113.799V21.865ZM111.729 23.865V30.69H115.729V23.865H111.729ZM111.729 30.69C111.729 30.9103 111.696 31.037 111.673 31.0964C111.662 31.1259 111.653 31.1415 111.649 31.1476C111.645 31.1536 111.643 31.1552 111.643 31.1553C111.643 31.1555 111.64 31.1588 111.63 31.1646C111.62 31.1706 111.6 31.1811 111.567 31.1928C111.498 31.2166 111.372 31.245 111.174 31.245V35.245C112.313 35.245 113.502 34.9169 114.415 34.0397C115.341 33.1495 115.729 31.9393 115.729 30.69H111.729ZM111.174 31.245C110.976 31.245 110.85 31.2166 110.781 31.1928C110.748 31.1811 110.728 31.1706 110.718 31.1646C110.708 31.1588 110.705 31.1555 110.705 31.1553C110.704 31.1552 110.703 31.1536 110.699 31.1476C110.695 31.1415 110.685 31.1259 110.674 31.0964C110.652 31.037 110.619 30.9103 110.619 30.69H106.619C106.619 31.9393 107.007 33.1495 107.933 34.0397C108.846 34.9169 110.035 35.245 111.174 35.245V31.245ZM123.604 16.795C123.604 15.0308 123.219 13.2306 122.259 11.7973C121.25 10.289 119.653 9.28342 117.595 9.23066L117.493 13.2293C118.165 13.2466 118.598 13.5185 118.936 14.0227C119.324 14.6019 119.604 15.5492 119.604 16.795H123.604ZM117.544 9.23C115.341 9.23 113.694 10.2717 112.692 11.8522C111.761 13.3196 111.449 15.1344 111.449 16.795H115.449C115.449 15.5506 115.697 14.5829 116.07 13.9941C116.371 13.5183 116.772 13.23 117.544 13.23V9.23ZM111.449 16.795C111.449 18.302 111.722 20.1199 112.598 21.6309C113.542 23.2581 115.189 24.4916 117.566 24.4649L117.521 20.4651C116.784 20.4734 116.383 20.1844 116.058 19.6241C115.666 18.9476 115.449 17.913 115.449 16.795H111.449ZM117.544 24.465C120.02 24.465 121.653 23.1331 122.552 21.4768C123.383 19.9458 123.604 18.1515 123.604 16.795H119.604C119.604 17.8185 119.422 18.8592 119.037 19.5682C118.72 20.1519 118.323 20.465 117.544 20.465V24.465ZM132.295 23.9V9.795H128.295V23.9H132.295ZM132.295 9.795C132.295 9.58377 132.318 9.43978 132.342 9.35145C132.365 9.26821 132.382 9.26091 132.362 9.28458C132.336 9.31617 132.316 9.31886 132.351 9.30485C132.398 9.2858 132.546 9.24 132.85 9.24V5.24C131.443 5.24 130.16 5.67693 129.287 6.72667C128.473 7.7054 128.295 8.88976 128.295 9.795H132.295ZM132.85 9.24C133.155 9.24 133.302 9.2858 133.35 9.30485C133.385 9.31886 133.365 9.31617 133.338 9.28458C133.319 9.26091 133.336 9.26821 133.359 9.35145C133.383 9.43978 133.405 9.58377 133.405 9.795H137.405C137.405 8.88976 137.228 7.7054 136.414 6.72667C135.54 5.67693 134.258 5.24 132.85 5.24V9.24ZM133.405 9.795V23.9H137.405V9.795H133.405ZM133.405 23.9C133.405 24.1112 133.383 24.2552 133.359 24.3436C133.336 24.4268 133.319 24.4341 133.338 24.4104C133.365 24.3788 133.385 24.3761 133.35 24.3902C133.302 24.4092 133.155 24.455 132.85 24.455V28.455C134.258 28.455 135.54 28.0181 136.414 26.9683C137.228 25.9896 137.405 24.8052 137.405 23.9H133.405ZM132.85 24.455C132.546 24.455 132.398 24.4092 132.351 24.3902C132.316 24.3761 132.336 24.3788 132.362 24.4104C132.382 24.4341 132.365 24.4268 132.342 24.3436C132.318 24.2552 132.295 24.1112 132.295 23.9H128.295C128.295 24.8052 128.473 25.9896 129.287 26.9683C130.16 28.0181 131.443 28.455 132.85 28.455V24.455ZM132.19 2.865C132.19 2.49957 132.485 2.205 132.85 2.205V-1.795C130.276 -1.795 128.19 0.290431 128.19 2.865H132.19ZM132.85 2.205C133.216 2.205 133.51 2.49957 133.51 2.865H137.51C137.51 0.290432 135.425 -1.795 132.85 -1.795V2.205ZM133.51 2.865C133.51 3.23043 133.216 3.525 132.85 3.525V7.525C135.425 7.525 137.51 5.43957 137.51 2.865H133.51ZM132.85 3.525C132.485 3.525 132.19 3.23043 132.19 2.865H128.19C128.19 5.43957 130.276 7.525 132.85 7.525V3.525Z" fill="black" mask="url(#path-1-outside-1_72_477)"/>
</svg>
