<svg width="21" height="20" viewBox="0 0 21 20" fill="none" xmlns="http://www.w3.org/2000/svg">
<path d="M3.71 4.8H1.4C0.63 4.8 0.0700003 4.2 0.0700003 3.53333V1.26667C2.6077e-07 0.6 0.56 0 1.33 0H3.64C4.41 0 4.97 0.6 4.97 1.26667V3.53333C5.04 4.2 4.41 4.8 3.71 4.8ZM3.64 1.26667L1.33 1.33333L1.4 3.53333L3.64 3.46667V1.26667ZM3.71 3.46667C3.64 3.46667 3.64 3.46667 3.71 3.46667ZM21 2.6C21 2.2 20.72 1.93333 20.3 1.93333H7.7C7.28 1.93333 7 2.2 7 2.6C7 3 7.28 3.26667 7.7 3.26667H20.3C20.72 3.26667 21 2.93333 21 2.6ZM3.71 12.4H1.4C0.63 12.4 0.0700003 11.8 0.0700003 11.1333V8.93333C0.0700003 8.2 0.7 7.66667 1.4 7.66667H3.71C4.48 7.66667 5.04 8.26667 5.04 8.93333V11.1333C5.04 11.8 4.41 12.4 3.71 12.4ZM3.64 8.86667L1.33 8.93333L1.4 11.1333L3.64 11.0667V8.86667ZM3.71 11.0667C3.64 11.0667 3.64 11.0667 3.71 11.0667ZM21 10.2C21 9.8 20.72 9.53333 20.3 9.53333H7.7C7.28 9.53333 7 9.8 7 10.2C7 10.6 7.28 10.8667 7.7 10.8667H20.3C20.72 10.8667 21 10.5333 21 10.2ZM3.71 20H1.4C0.56 20 0 19.4 0 18.7333V16.4667C0 15.7333 0.63 15.2 1.33 15.2H3.64C4.41 15.2 4.97 15.8 4.97 16.4667V18.7333C5.04 19.4 4.41 20 3.71 20ZM3.64 16.4667L1.33 16.5333L1.4 18.7333L3.64 18.6667V16.4667ZM3.71 18.6667C3.64 18.6667 3.64 18.6667 3.71 18.6667ZM21 17.8C21 17.4 20.72 17.1333 20.3 17.1333H7.7C7.28 17.1333 7 17.4 7 17.8C7 18.2 7.28 18.4667 7.7 18.4667H20.3C20.72 18.4667 21 18.1333 21 17.8Z" fill="#6A6C6C"/>
</svg>
